<?xml version="1.0" encoding="UTF-8"?>
<svg id="Layer_1" data-name="Layer 1" xmlns="http://www.w3.org/2000/svg" version="1.1" viewBox="0 0 3000 560">
  <defs>
    <style>
      .cls-1 {
        fill: #282550;
        stroke-width: 0px;
      }
    </style>
  </defs>
  <path class="cls-1" d="M1606.32,408.85c-9.66,0-17.95-2.18-24.86-6.54-6.92-4.36-12.11-10.37-15.6-18.02-1.21-3.22-2.25-7.01-3.12-11.37-.87-4.36-1.58-9.13-2.11-14.29-.54-5.17-.94-10.67-1.21-16.51-.27-5.84-.4-11.98-.4-18.42s.07-13.02.2-19.73c.53-18.12,2.72-35.03,6.54-50.73,3.83-15.7,9.46-29.8,16.91-42.28,7.45-12.48,16.81-23.18,28.08-32.11,11.27-8.92,24.63-15.77,40.06-20.53,15.43-4.76,33.08-7.15,52.95-7.15,13.69,0,27.04,1.54,40.06,4.63,13.02,3.09,24.79,7.62,35.33,13.59,10.54,5.97,18.89,13.42,25.06,22.35,6.17,8.93,9.26,19.23,9.26,30.9,0,10.07-1.68,18.66-5.03,25.77-3.36,7.12-7.95,13.02-13.79,17.72-5.84,4.7-12.35,8.46-19.53,11.27-7.18,2.82-14.6,5.1-22.25,6.84-3.76.81-6.95,1.85-9.56,3.12-2.62,1.28-4.06,2.99-4.33,5.13-.14,1.34,1.24,3.52,4.13,6.54,2.88,3.02,6.37,6.54,10.47,10.57,4.09,4.03,8.28,8.19,12.58,12.48,4.29,4.3,7.92,8.39,10.87,12.28,1.88,2.55,3.89,5.27,6.04,8.15,2.15,2.89,4.26,5.74,6.34,8.56,2.08,2.82,3.96,5.61,5.64,8.35,1.68,2.75,2.99,5.23,3.93,7.45.94,2.21,1.41,3.93,1.41,5.13,0,7.25-2.31,13.36-6.94,18.32-4.63,4.97-10.64,8.73-18.02,11.27-7.38,2.55-14.97,3.82-22.75,3.82-6.04,0-11.85-.91-17.41-2.72-5.57-1.81-10.77-4.6-15.6-8.35-4.83-3.76-9.46-8.46-13.89-14.09-4.43-5.64-8.66-12.28-12.68-19.93-4.43-7.78-8.66-14.66-12.68-20.64-4.03-5.97-7.55-10.74-10.57-14.29-3.02-3.55-5.4-5.34-7.15-5.34-1.08,0-1.98.57-2.72,1.71-.74,1.14-1.38,2.82-1.91,5.03-.54,2.21-.97,4.73-1.31,7.55-.34,2.82-.7,5.91-1.11,9.26-.14,2.01-.37,4.43-.7,7.25-.34,2.82-.7,5.77-1.11,8.86-.4,3.09-.8,6.11-1.21,9.06-.4,2.95-.91,5.74-1.51,8.35-.6,2.62-1.18,4.73-1.71,6.34-3.22,9.66-8.89,16.31-17.01,19.93-8.12,3.62-16.81,5.44-26.07,5.44ZM1684.23,260.27c3.62,0,7.65-.53,12.08-1.61,4.43-1.07,8.69-2.55,12.78-4.43,4.09-1.88,7.92-4.29,11.48-7.25,3.55-2.95,6.34-6.31,8.35-10.07,2.01-3.76,3.02-7.92,3.02-12.48,0-4.16-.94-7.75-2.82-10.77-1.88-3.02-4.43-5.5-7.65-7.45-3.22-1.94-6.88-3.35-10.97-4.23-4.1-.87-8.29-1.31-12.58-1.31-4.97,0-9.23.77-12.78,2.32-3.56,1.54-6.51,3.66-8.86,6.34-2.35,2.69-4.4,5.71-6.14,9.06-1.21,2.28-2.42,4.93-3.62,7.95-1.21,3.02-2.15,6.18-2.82,9.46-.67,3.29-1.01,6.68-1.01,10.17s.84,6.11,2.52,8.25c1.68,2.15,4.13,3.69,7.35,4.63,3.22.94,7.11,1.41,11.68,1.41Z"/>
  <g>
    <path class="cls-1" d="M358.04,329.55c-7.14-13.44-10.77-29.73-10.77-48.4,0-20.21,4.34-38.28,12.87-53.71,3.96-7.16,8.65-13.78,13.97-19.85-.14-.4-.29-.82-.43-1.24-3.09-8.38-6.34-16.14-9.77-23.24-3.42-7.12-7.08-13.16-10.97-18.13-10.87-15.43-23.45-27.38-37.75-35.84-7.48-4.42-15.44-7.69-23.9-9.81-.01.01-.01,0-.03,0-.57-.14-1.13-.28-1.7-.4h-.03c-.61-.15-1.21-.28-1.82-.4-.7-.15-1.39-.29-2.09-.42-.71-.13-1.43-.25-2.15-.36-1.33-.21-2.67-.4-4.03-.56-3.96-.44-8.02-.68-12.18-.68-11.27,0-22.07,1.82-32.4,5.45-10.34,3.61-19.93,8.42-28.79,14.39-8.87,5.98-16.99,12.39-24.37,19.22-7.38,6.85-13.76,13.55-19.13,20.13-4.3,5.1-8.99,11.15-14.08,18.13-5.1,6.98-10.31,14.67-15.61,23.05-5.3,8.4-10.33,17.18-15.1,26.37-4.77,9.2-9.06,18.53-12.89,28-3.82,9.45-6.84,18.59-9.06,27.37-2.21,8.8-3.32,17.21-3.32,25.27,0,8.99,1.42,16.4,4.23,22.24,2.82,5.84,7.19,10.11,13.09,12.79,2.53,1.14,5.32,2.04,8.41,2.71.49.11.97.21,1.46.29,3.63.64,7.62.97,11.97.97,11.68,0,20.67-1.92,26.98-5.74s11.82-8.69,16.51-14.6c2.4-3.63,4.75-7.41,7.05-11.37,2.28-3.96,4.49-7.76,6.64-11.38,2.14-3.61,4.28-6.84,6.44-9.66,2.28-2.82,4.77-4.99,7.45-6.53,2.68-1.54,6.1-2.72,10.26-3.53,4.17-.53,8.97-.97,14.4-1.31,5.44-.33,10.84-.5,16.21-.5,3.35,0,6.84.07,10.47.19,3.63.14,6.98.38,10.06.71.85.08,1.64.19,2.38.31.65.08,1.27.19,1.83.29.58.1,1.13.21,1.64.33.63.13,1.2.28,1.7.43,3.89.81,7.24,2.31,10.06,4.53,2.82,2.21,5.24,5.27,7.26,9.16,1.88,3.09,3.38,6.13,4.52,9.16,1.14,3.02,2.15,5.96,3.03,8.85.86,2.89,1.71,5.67,2.52,8.35.81,2.68,1.74,5.23,2.81,7.65,4.17,6.71,9.4,11.41,15.71,14.1,2.32.99,4.78,1.79,7.38,2.43.03.01.06.01.08.01.43.11.88.21,1.32.29.44.1.89.18,1.35.26,3.59.64,7.42.97,11.51.97,18,0,31.33-4.14,40.03-12.39-8.97-6.51-16.1-14.67-21.24-24.37ZM290.43,238.21c-1.21,3.29-3.63,5.62-7.24,6.95-2.82.54-6.38,1-10.68,1.4-4.3.4-9.3.71-15,.92-5.71.19-12.32.29-19.84.29-.57,0-1.13-.01-1.67-.03-.31-.01-.61-.03-.9-.04-.35-.01-.7-.04-1.03-.07-.17-.01-.35-.03-.51-.04-.58-.06-1.15-.11-1.71-.19-.04-.01-.08-.01-.11-.01-.03-.01-.07-.01-.1-.01-.54-.08-1.06-.17-1.57-.26-2.38-.43-4.5-1.1-6.38-2-3.63-1.74-5.44-4.56-5.44-8.45,0-1.88.53-4.36,1.61-7.45,1.07-3.09,2.38-6.34,3.92-9.76,1.54-3.43,3.22-6.71,5.03-9.87,1.82-3.16,3.53-5.8,5.14-7.95,4.16-6.17,9.02-11.65,14.6-16.4,5.56-4.77,11.23-7.16,17-7.16,1.14,0,2.22.13,3.28.35,3.2.6,6.07,2.21,8.6,4.85,3.28,3.42,6.01,7.74,8.15,12.98,1.35,2.95,2.49,6.2,3.43,9.76.93,3.56,1.71,7.02,2.31,10.37.61,3.35.9,6.44.9,9.26,0,5.1-.6,9.3-1.81,12.58Z"/>
    <path class="cls-1" d="M585.47,355.46c-9.42-12.16-16.81-27.5-21.95-45.58-2.2-7.71-3.86-15.83-4.95-24.12-1.11-8.38-1.52-16.88-1.18-25.24.33-8.47,1.45-16.53,3.32-23.96,3.03-13.02,8.37-24.03,15.83-32.74,1.06-1.22,2.15-2.39,3.31-3.52-.74-.74-1.46-1.49-2.22-2.2-9.66-9.06-21.2-15.92-34.63-20.55-4.31-1.49-8.79-2.74-13.44-3.75-.03,0-.06,0-.08-.01-.78-.17-1.56-.33-2.35-.49s-1.58-.31-2.38-.44h-.04c-.92-.17-1.83-.32-2.77-.46-1.88-.29-3.77-.54-5.7-.76-.03,0-.06-.01-.08-.01-5.75-.64-11.75-.96-17.95-.96-18.27,0-35.71,2.32-52.35,6.95-16.64,4.63-31.51,11.55-44.59,20.74-5.23,3.67-10.01,7.73-14.36,12.15-2.97,3-5.74,6.2-8.31,9.55-.07.08-.14.18-.21.26-3,3.96-5.77,8.13-8.23,12.57-7.65,13.82-11.47,29.93-11.47,48.3,0,16.92,3.16,31.32,9.47,43.19,4.36,8.23,10.37,15.1,17.99,20.63.07.06.15.11.24.17,2.86,2.04,5.95,3.91,9.26,5.59.53.26,1.06.54,1.6.79,6.53,3.11,13.87,5.45,22.02,7.01.5.1,1.01.19,1.53.28.51.1,1.03.18,1.54.26.01,0,.03,0,.04.01.99.15,1.97.29,2.97.43.04,0,.1.01.14.01.1.01.18.03.28.04.71.08,1.43.18,2.17.28.1.01.21.01.32.04h.04c.13.01.28.03.42.04.11.01.22.01.33.03.58.06,1.17.13,1.77.18.6.06,1.21.11,1.81.15.83.08,1.68.14,2.53.19.15.01.32.03.47.03.65.04,1.32.08,1.99.11.64.04,1.28.07,1.93.08.93.04,1.88.07,2.82.08,1.18.03,2.39.04,3.6.04,6.98,0,13.33-.64,19.03-1.92,5.7-1.26,10.73-2.68,15.1-4.23,4.36-1.54,7.95-2.95,10.77-4.23,2.82-1.28,4.96-1.92,6.45-1.92.4,0,.76.07,1.07.17.42.1.78.24,1.03.5.4.4.71.9.92,1.5.19.61.29,1.31.29,2.11,0,3.77-.74,7.42-2.21,10.98-1.47,3.54-3.66,6.84-6.55,9.86-2.88,3.03-6.27,5.5-10.16,7.45-3.89,1.95-8.33,3.06-13.29,3.32-6.17.67-12.46.95-18.82.81-1.31-.03-2.6-.07-3.91-.11-5.06-.17-10.11-.47-15.12-.89-6.31-.54-12.41-1.08-18.32-1.61-5.91-.54-11.47-.81-16.71-.81-8.31,0-16.07,1-23.24,3.02-7.19,2.02-13.02,5.13-17.51,9.37-4.5,4.23-6.76,9.88-6.76,17,0,4.56,1.35,9.16,4.03,13.79,2.68,4.64,7.45,8.87,14.29,12.69.86.47,1.75.95,2.7,1.4.92.44,1.88.88,2.88,1.29,2.21.95,4.63,1.82,7.23,2.64,2.13.68,4.38,1.32,6.77,1.92.72.18,1.47.36,2.22.53.85.19,1.71.39,2.59.58.22.06.46.11.7.15.32.06.65.13.97.19.64.14,1.29.26,1.95.39.08.01.19.03.28.06l.5.08c.71.14,1.43.26,2.17.39.14.03.28.04.43.07.04,0,.1.01.14.01.63.1,1.25.21,1.89.31.31.04.61.08.92.14.33.06.67.1,1,.14h.03c.82.11,1.67.22,2.52.33.01,0,.04,0,.06.01.46.06.93.11,1.4.17.31.04.61.07.92.1.13.01.24.03.36.04.06,0,.1.01.15.01,1.89.21,3.84.39,5.84.56.7.04,1.38.1,2.09.15.96.07,1.92.14,2.89.19.82.06,1.65.11,2.49.15,6.16.33,12.8.5,19.93.5,25.9,0,49.18-3.96,69.85-11.87,20.67-7.92,38.25-19.34,52.75-34.22,11.59-11.93,21-25.94,28.22-42.02-1.96-2.13-3.86-4.34-5.69-6.67ZM522.88,280.19c-2.49,5.24-5.91,9.76-10.27,13.59-4.36,3.82-9.47,6.81-15.3,8.95-5.84,2.15-12.18,3.22-19.02,3.22-3.98,0-7.62-.33-10.93-.99-3.41-.65-6.48-1.65-9.2-2.99-5.31-2.63-9.34-6.31-12.08-11.08-2.75-4.77-4.13-10.16-4.13-16.21,0-6.84,1.33-12.94,4.02-18.32,2.68-5.37,6.38-9.9,11.08-13.58,4.7-3.7,9.97-6.48,15.81-8.35,5.84-1.88,12.04-2.82,18.63-2.82,3.75,0,7.21.32,10.36.96,3.28.64,6.23,1.6,8.87,2.92,5.09,2.54,9.02,6.17,11.77,10.87,2.75,4.7,4.13,10.13,4.13,16.31s-1.25,12.27-3.73,17.51Z"/>
    <path class="cls-1" d="M823.31,276.93c-1.33,6.19-3.07,12.11-5.27,17.74-.04.13-.1.25-.15.38-2.79-.75-5.56-1.39-8.27-1.83-3.45-.58-6.83-.88-10.04-.88-7.98,0-15.28,1.78-21.7,5.31-6.81,3.75-15.5,11.52-18.14,27.23-1.64,9.76.24,18.71,5.44,25.9.65.89,1.35,1.77,2.07,2.64-14.32,8.72-30.94,15.76-49.88,21.16-18.06,5.13-34.6,7.69-49.64,7.69h-1.33c-1.07-.01-2.14-.04-3.2-.08-1.06-.03-2.11-.08-3.16-.15h-.03c-.96-.06-1.92-.13-2.86-.21-.15-.01-.32-.03-.47-.04-.68-.06-1.36-.13-2.03-.21-.25-.01-.5-.04-.75-.07-.01-.01-.04-.01-.07-.01-.67-.07-1.35-.15-2.02-.25-.33-.04-.67-.1-1-.14-.33-.06-.65-.1-.99-.15-8.74-1.38-16.85-3.78-24.3-7.23-7.78-3.6-14.83-8.38-21.18-14.28-2.89-2.7-5.63-5.64-8.22-8.81-.07-.1-.15-.18-.22-.28-.44-.54-.9-1.07-1.35-1.64-8.59-11.09-15.28-25.02-20.04-41.81-2.06-7.23-3.6-14.73-4.63-22.55-1.03-7.8-1.39-15.57-1.08-23.34.31-7.76,1.31-15.01,3.02-21.78,2.63-11.36,7.12-20.73,13.47-28.11.65-.76,1.33-1.49,2.04-2.2.04-.06.08-.11.14-.15,2.54-2.59,5.38-4.87,8.51-6.83,4.3-2.7,9.12-4.82,14.5-6.35,7.52-2.14,13.78-2.96,18.75-2.45.32.03.64.07.95.11.03,0,.06.01.08.01.5.08.99.17,1.45.28.11.03.22.04.33.07,5.39,1.32,9.51,3.75,12.32,7.27,2.82,3.53,4.81,7.35,5.99,11.48.86,2.56,1.68,6.09,2.49,10.61.79,4.52,1.61,9.34,2.43,14.47.83,5.14,1.74,10.15,2.71,15.04.97,4.88,1.99,8.99,3.07,12.3,3.27,9.54,7.03,17.26,11.3,23.17,4.25,5.89,9.13,9.81,14.64,11.73,1.38.49,2.82.83,4.31,1.07.36.06.74.11,1.11.15,4.25.53,8.98.07,14.16-1.42,7.49-2.13,13.51-5.62,18.06-10.47,4.56-4.85,7.92-11.29,10.11-19.31,2.18-8.01,3.43-17.64,3.73-28.89.35-4.14.46-8.19.32-12.12-.15-3.95-.35-7.83-.6-11.66-.25-3.84-.4-7.7-.46-11.59-.07-3.88.1-7.84.49-11.86,1.29-9.72,4.6-18.18,9.94-25.42,5.34-7.24,13.82-12.51,25.44-15.82,6.19-1.75,11.76-2.22,16.74-1.42.38.06.75.13,1.11.21,2.57.56,4.98,1.47,7.21,2.75,6.83,3.91,12.23,10.68,16.22,20.28,1.31,3.13,2.45,6.74,3.41,10.87.03.11.04.22.07.33-.22.19-.47.38-.7.57-9.59,8.51-15.65,19.93-18,33.96-2.07,12.3-.72,23.62,4,33.65,4.11,8.73,10.73,16.57,19.66,23.37Z"/>
    <path class="cls-1" d="M984.57,313.98c-.36,2.96-.67,5.96-.92,9.01-.26,3.32-.43,6.56-.53,9.73-2.4,10.94-6.89,19.95-13.51,26.95-7.37,7.81-16.61,13.61-27.72,17.38-11.12,3.78-23.58,5.84-37.38,6.17-1.58.04-3.18.06-4.78.06-2.63,0-5.28-.06-7.97-.17-.13.01-.24,0-.36-.01-.25,0-.51-.01-.76-.03-.78-.03-1.54-.06-2.32-.11-.1,0-.18,0-.26-.01-.39-.01-.78-.04-1.17-.07-1.22-.07-2.43-.15-3.66-.25-.58-.04-1.17-.08-1.75-.14-.58-.04-1.18-.1-1.77-.15-.11-.01-.21-.01-.32-.03-.03-.01-.04-.01-.07-.01-.24-.01-.47-.04-.71-.07-.51-.04-1.03-.1-1.54-.15l-1.54-.17c-.42-.04-.83-.08-1.27-.14-1.25-.14-2.52-.29-3.78-.44-.01-.01-.03-.01-.06-.01-.38-.06-.74-.1-1.11-.15-1.07-.14-2.14-.31-3.22-.46-.46-.07-.9-.14-1.36-.21-.88-.14-1.75-.28-2.64-.43-.1,0-.19-.03-.29-.04-.17-.03-.35-.06-.53-.08-.07-.01-.15-.03-.24-.04-1.2-.21-2.39-.4-3.57-.61-.03,0-.06,0-.1-.01-1.18-.21-2.35-.42-3.53-.65-.43-.07-.86-.15-1.28-.24-1.9-.36-3.79-.74-5.67-1.11-1.15-.24-2.29-.47-3.43-.72-.63-.13-1.24-.26-1.85-.4-.68-.14-1.36-.29-2.03-.44-.9-.19-1.81-.4-2.71-.63-1.21-.28-2.42-.57-3.61-.86-9.02-2.2-17.24-4.67-24.67-7.42-7.44-2.75-13.86-5.8-19.28-9.16-1.46-.93-2.84-1.88-4.14-2.85-3.21-2.38-5.96-4.87-8.26-7.48-.04-.06-.1-.11-.14-.15-.81-.93-1.57-1.88-2.27-2.84-3.49-4.8-4.64-10.63-3.49-17.53,1.54-9.13,5.71-15.57,12.54-19.32,6.8-3.74,14.94-4.81,24.42-3.24.04,0,.07.01.11.01,1.7.31,3.45.7,5.2,1.11.1.03.19.06.28.08,3.42.85,6.89,1.93,10.44,3.29.06.01.11.03.15.06,5.63,2.17,11.79,4.42,18.46,6.77,6.69,2.35,14.26,4.24,22.73,5.67h.06c1.49.25,2.95.47,4.39.65,1.11.17,2.22.29,3.31.39.14.01.26.03.4.04.21.03.42.06.63.06.1.01.18.03.26.03.4.04.81.08,1.2.11.25.01.5.03.75.06.06,0,.1,0,.14.01.99.07,1.95.11,2.91.15.1.01.18.01.26.01,1.01.04,2,.07,2.99.07,5.38.01,9.88-.86,13.51-2.63,3.63-1.78,5.81-4.78,6.52-9.02.49-2.91-.1-5.52-1.74-7.84-1.65-2.32-5.13-4.77-10.4-7.37-5.28-2.59-13.08-5.63-23.38-9.13-12.52-4.46-23.03-9.48-31.6-15.03-.82-.54-1.65-1.07-2.45-1.63-2.72-1.88-5.17-3.86-7.42-5.91-.1-.08-.18-.17-.28-.26-4.99-4.62-8.81-9.65-11.38-15.1-3.75-7.99-4.8-17-3.1-27.06,1.56-9.23,4.98-16.92,10.22-23.12l.25-.29c1.22-1.43,2.53-2.81,3.96-4.07,1.71-1.52,3.53-2.92,5.44-4.24,6.6-4.6,14.35-8.02,23.23-10.23,11.43-2.84,23.94-4.17,37.52-4,10.09.14,20.18.85,30.3,2.14,3.41.43,6.81.95,10.22,1.52.06.01.13.01.18.03.04.01.08.01.13.03,1.11.18,2.22.38,3.35.58,1.17.22,2.34.44,3.5.67,6.77,1.36,13.55,3,20.36,4.95,4.81,1.38,9.36,2.91,13.66,4.56-2.11.35-4.28.7-6.56,1.06l-.33.06-.32.07c-6.92,1.5-13.11,3.48-18.36,5.88-6.63,3.02-11.8,7.59-15.39,13.55-3.5,5.84-5.21,13.18-5.21,22.44,0,.29.03.56.03.85-3.45-.54-6.76-.83-9.88-.83-.67,0-1.33.01-1.99.04-3.96.15-7.23.93-9.77,2.34-2.56,1.4-4.1,3.7-4.63,6.88-.63,3.7,1.64,7.19,6.81,10.43,5.17,3.25,13.86,7.06,26.05,11.43,11.69,4.14,21.6,9.15,29.73,15.01,8.13,5.85,14.04,12.84,17.71,20.93,1.88,4.16,3.03,8.66,3.46,13.53Z"/>
    <path class="cls-1" d="M1145.1,214.6c-4.5,5.17-8.52,11.11-12.01,17.79l-.04.08-.04.08c-1.99,3.96-3.88,8.7-5.66,14.08-1.64,4.98-3.31,10.36-4.99,15.97-5.07.4-9.97.7-14.67.86-5.64.19-10.27.5-13.9.9-2.95.28-5.7,1.25-8.24,2.92-2.56,1.68-4.43,5.07-5.64,10.18-.26,2.68-.71,5.56-1.31,8.65-.61,3.1-1.11,6.31-1.51,9.66-.4,3.36-.81,6.59-1.21,9.67-.4,3.09-.67,6.01-.81,8.76-.13,2.75-.13,5.13,0,7.14.14,4.3,1.28,7.41,3.43,9.36,1.36,1.25,3.38,2.09,6.01,2.54.38.07.75.11,1.15.17.29.04.6.07.9.1,1.03.11,2.14.17,3.31.17,4.16,0,7.71-.83,10.66-2.52,2.96-1.68,5.84-3.29,8.66-4.84.54-.29,1.11-.54,1.68-.78-.13,2.35-.19,4.56-.19,6.6,0,10.47,1.47,19.57,4.38,27.06.56,1.45,1.21,2.81,1.89,4.13-2.92,2.27-6.17,4.34-9.77,6.21-7.31,3.84-15.29,6.76-23.95,8.76-8.66,2.02-17.15,3.03-25.47,3.03-6.2,0-12.15-.42-17.85-1.22-.82-.11-1.61-.24-2.42-.38-.97-.17-1.95-.33-2.91-.53-.72-.14-1.43-.28-2.14-.44-2.03-.46-4.03-.96-5.99-1.5-9.66-2.75-17.39-7.28-23.16-13.59-5.77-6.31-8.73-14.76-8.85-25.37,0-2.02.04-4.07.13-6.17.1-2.67.25-5.41.47-8.22.22-2.7.49-5.34.81-7.97.26-2.27.57-4.52.9-6.74.74-4.75,1.45-9.38,2.13-13.89.67-4.49,1.24-8.62,1.71-12.39.46-3.75.7-6.91.7-9.45,0-4.84-1.54-7.99-4.63-9.47-1.77-.85-3.78-1.54-6.01-2.07-.03,0-.06,0-.08-.01-.35-.1-.72-.18-1.08-.25-.38-.07-.75-.15-1.13-.22-.47-.1-.97-.18-1.46-.25-.6-.11-1.2-.19-1.81-.26-2.56-.26-5.41-.54-8.56-.81-3.06-.25-6.13-.57-9.26-.96-.1-.01-.21-.03-.31-.04-1.52-.19-3-.4-4.48-.61-.07,0-.13-.01-.18-.03-1.52-.24-3.02-.47-4.5-.72-.01,0-.04-.01-.06-.01-5.75-1.08-10.4-3.45-13.93-7.13-.35-.35-.65-.74-.96-1.13-2.45-3.1-3.86-7.38-4.25-12.84,0-.01-.01-.01-.01-.03-.07-1.03-.11-2.1-.11-3.21,0-7.12,1.21-12.69,3.61-16.72,2.42-4.02,5.91-7.08,10.48-9.16,4.56-2.07,9.93-3.78,16.1-5.13,6.05-.93,11.41-1.83,16.11-2.71,2-.38,3.91-.74,5.74-1.1.06-.01.11-.03.17-.04,2.4-.47,4.67-.93,6.77-1.38,2.5-.5,4.78-1.32,6.84-2.46.7-.39,1.38-.81,2.02-1.26,2.56-1.82,4.43-4.93,5.64-9.37.93-3.09,1.81-6.17,2.61-9.26.81-3.09,1.58-6.1,2.32-9.06.74-2.95,1.64-5.56,2.71-7.85,3.63-7.77,8.06-13.34,13.29-16.71,5.24-3.35,12.69-5.03,22.35-5.03,2.07,0,4.03.07,5.85.21.61.04,1.2.1,1.78.17.81.1,1.57.19,2.32.32.54.08,1.06.18,1.57.29.17.03.33.07.49.1,1.99.44,3.75,1,5.3,1.68,4.24,1.89,7.35,4.98,9.37,9.27,2.02,4.3,3.42,10.06,4.23,17.31.14,2.28.24,4.5.31,6.64.06,2.15.06,4.32,0,6.55-.07,2.21-.14,4.39-.21,6.53-.07,2.15.04,4.31.31,6.45.26,3.75,1.78,6.64,4.53,8.66,2.75,2,6.07,3.35,9.97,4.02.08.01.18.03.26.04t.03.01c1.49.26,2.99.51,4.52.75.06.01.11.01.17.03.79.13,1.58.25,2.38.38.79.13,1.6.24,2.4.36,3.22.47,6.41.9,9.56,1.31,3.06.39,6.07.78,9.06,1.15.08.01.18.03.26.04.01,0,.03.01.03.01.39.06.78.13,1.15.21.32.04.64.1.96.17,4.93,1.04,9.34,2.97,13.26,5.75Z"/>
    <path class="cls-1" d="M1192.01,338.25c-.25,4.49-.03,8.62.64,12.26.76,4.77,2.06,9.08,3.86,12.9-2.46,1.92-5.02,3.59-7.67,4.99-7.38,3.89-16.37,5.84-26.98,5.84-4.98,0-9.42-.39-13.37-1.15-4-.81-7.46-2.02-10.38-3.63-2.38-1.32-4.46-2.89-6.28-4.71-2.63-2.64-4.67-5.78-6.09-9.48-.01-.01-.01-.04-.03-.06-.04-.1-.07-.21-.1-.31-2.34-6.17-3.5-13.73-3.5-22.69,0-2.39.11-5.05.29-7.91h0c.14-1.96.29-4,.51-6.19.15-1.61.35-3.25.56-4.91.47-3.85,1.06-7.81,1.75-11.9,1.01-5.84,2.18-11.79,3.53-17.82.82-3.73,1.74-7.35,2.7-10.93.6-2.21,1.18-4.43,1.83-6.59.61-2.06,1.22-4.06,1.82-6.02.03-.07.04-.14.06-.19,1.03-3.34,2.06-6.55,3.06-9.59,1.6-4.89,3.28-9.09,5.03-12.58,2.63-5.03,5.56-9.51,8.79-13.51.07-.08.13-.17.19-.25,2.54-3.13,5.27-5.96,8.17-8.47,2.02-1.72,4.1-3.32,6.3-4.75,9.47-6.17,21.43-9.26,35.93-9.26,2.91,0,5.6.24,8.13.7.5.1.99.19,1.46.29,7.03,1.64,12.54,5.2,16.49,10.63,2.02,2.78,3.66,5.95,4.95,9.48-3.96,4.56-7.7,9.4-11.16,14.53-14.11,20.82-23.48,46.18-27.87,75.34-.68,4.56-1.25,9.13-1.68,13.59-.42,4.36-.72,8.51-.93,12.33Z"/>
    <path class="cls-1" d="M1233.84,176.44c9.73-2.62,17.58-6.91,23.55-12.88s8.96-13.72,8.96-23.25c0-7.11-1.88-12.92-5.64-17.41-3.76-4.5-8.73-7.82-14.9-9.97-3.02-1.05-6.15-1.84-9.39-2.37-3.3-.53-6.71-.8-10.25-.8-10.47,0-20.94,1.68-31.41,5.03-10.47,3.36-19.16,8.32-26.07,14.9-6.91,6.58-10.37,14.83-10.37,24.76,0,6.85,3.39,12.88,10.17,18.12,3.81,2.94,9.1,5.06,15.86,6.35,5.2.97,11.25,1.45,18.17,1.45,11.14,0,21.57-1.31,31.3-3.93Z"/>
    <path class="cls-1" d="M1467.74,292.24c0,6.17-.5,12.62-1.5,19.34-1.01,6.71-2.39,13.15-4.13,19.32-1.75,6.17-3.96,11.75-6.64,16.71-4.7,8.99-10.54,15.83-17.51,20.53-6.98,4.7-15.57,7.05-25.77,7.05-5.12,0-9.67-.33-13.68-.99-.5-.08-.99-.17-1.46-.26-.47-.1-.93-.19-1.4-.29-.03,0-.06,0-.08-.01-2.71-.64-5.13-1.43-7.23-2.42-5.78-2.68-9.8-6.51-12.08-11.47-2.29-4.96-3.7-10.94-4.24-17.92-.26-4.43-.36-9.13-.29-14.1.06-4.96.13-10.06.19-15.3.07-5.23.03-10.4-.1-15.5-.14-5.1-.4-9.8-.81-14.1-1.21-9.92-3.66-17.57-7.35-22.95-2.61-3.81-6.55-6.26-11.77-7.35-.35-.07-.7-.14-1.06-.21-1.93-.36-4.02-.54-6.28-.54-7.12,0-13.26,2.09-18.43,6.24-5.16,4.17-9.83,10.27-13.98,18.32-1.88,3.77-3.7,7.85-5.44,12.29-1.75,4.42-3.42,9.26-5.03,14.48-1.61,5.24-3.22,10.98-4.84,17.22-1.61,6.24-3.28,12.91-5.03,20.03-2.14,9.26-5.77,16.4-10.87,21.43-5.1,5.03-11.06,8.52-17.92,10.47-6.84,1.95-14.22,2.92-22.14,2.92-3.92,0-7.55-.29-10.88-.85-.7-.13-1.39-.25-2.06-.4-4.7-1.04-8.76-2.68-12.22-4.93-1.71-1.11-3.23-2.42-4.57-3.91-2.46-2.7-4.35-5.99-5.66-9.91-.03-.1-.06-.21-.08-.31-.63-1.92-1.13-3.99-1.47-6.21-.53-2.82-.7-6.06-.5-9.76.21-3.7.5-7.66.9-11.89.4-4.23.95-8.55,1.61-12.98,4.16-27.65,12.86-51.24,26.08-70.77,1.53-2.25,3.11-4.45,4.74-6.59.08-.11.18-.24.26-.36,2.91-3.78,5.96-7.35,9.17-10.75,10.48-11.09,22.59-20.09,36.35-27,20.46-10.26,43.31-15.4,68.54-15.4,7.55,0,14.8.44,21.74,1.31.03,0,.06,0,.07.01,2.32.29,4.61.64,6.87,1.03.74.13,1.46.26,2.18.39.71.14,1.42.28,2.13.43,9.97,2.06,19.22,5.12,27.82,9.16,17.51,8.26,31.21,20.48,41.08,36.64,9.86,16.18,14.79,36.21,14.79,60.09Z"/>
  </g>
  <g>
    <path class="cls-1" d="M2181.69,196.07c-6.63-9.8-15.69-17.72-27.18-23.76-11.47-6.05-24.66-10.47-39.56-13.29-14.89-2.82-30.66-4.23-47.3-4.23-28.32,0-51.81,4.46-70.46,13.39-18.65,8.92-32.65,22.64-41.98,41.16-9.33,18.53-14.26,41.95-14.79,70.27-.28,4.03-.47,8.49-.61,13.39-.13,4.91-.13,10.06,0,15.5.14,5.44.33,10.94.61,16.51.26,5.57.64,10.94,1.11,16.1.11,1.29.24,2.57.39,3.81.28,2.49.61,4.87,1,7.14.19,1.14.4,2.25.61,3.35.88,4.36,1.78,8.09,2.72,11.18,3.22,6.98,7.17,13.01,11.87,18.11.58.64,1.18,1.25,1.79,1.86,4.23,4.2,8.87,7.51,13.91,9.91,5.77,2.75,12.01,4.13,18.72,4.13,12.34,0,21.67-3.18,27.98-9.56,6.31-6.37,10.33-15.93,12.08-28.69.26-1.74.5-3.66.71-5.73.19-2.09.36-4.34.5-6.76.13-2.4.31-4.8.5-7.14.1-1.17.21-2.32.33-3.45.11-1.11.24-2.22.38-3.29.26-2.14.46-4.09.6-5.84.67-5.37,1.75-9.59,3.23-12.68,1.47-3.09,4.49-4.63,9.06-4.63,5.77,0,12.11.53,19.02,1.6,1.64.26,3.34.47,5.06.67.57.06,1.17.1,1.75.15,1.18.11,2.38.22,3.6.29.72.06,1.45.08,2.18.11,1.14.06,2.29.11,3.46.14.79.03,1.6.04,2.4.04.32,0,.65.01.97.01.54,0,1.08.01,1.63.01.72,0,1.46,0,2.2-.01,12.69-.24,24.63-1.96,35.84-5.14-.26-9.45.47-18.64,2.24-27.5,3.66-18.36,10.98-35.17,21.8-49.95,9.23-12.64,20.68-23.77,34.08-33.19-.76-1.36-1.57-2.71-2.46-4ZM2106.41,246.39c-2.21,3.5-5.17,6.57-8.85,9.26-3.7,2.7-7.9,4.84-12.59,6.45-4.7,1.61-9.69,2.82-14.98,3.63-5.31.81-10.51,1.21-15.61,1.21-2.42,0-4.5-.33-6.24-1.01-1.74-.67-3.25-1.74-4.53-3.22-1.28-1.47-2.31-3.18-3.11-5.13s-1.38-4.2-1.71-6.74c-.33-2.54-.5-5.37-.5-8.45,0-4.84.76-9.23,2.31-13.19,1.54-3.96,3.75-7.38,6.64-10.27,2.88-2.88,6.44-5.09,10.68-6.64,4.23-1.53,9.02-2.31,14.39-2.31,3.09,0,6.38.24,9.87.71,3.49.47,6.91,1.24,10.26,2.31,3.36,1.08,6.31,2.56,8.87,4.43,2.54,1.88,4.59,4.2,6.13,6.94,1.54,2.75,2.32,6.07,2.32,9.97,0,4.57-1.11,8.59-3.32,12.08Z"/>
    <path class="cls-1" d="M2317.18,330.63c-.75-4.64-1.25-9.67-1.5-14.96-.1-2.25-.14-4.56-.14-6.87-1.49.63-2.96,1.28-4.43,1.99-1.07.51-2.14,1.04-3.2,1.6-1.07.56-2.14,1.13-3.2,1.72-8.51,4.77-16.89,9.51-25.13,14.22-1.03.58-2.06,1.15-3.09,1.7-2.06,1.08-4.11,2.1-6.16,3.02-3.07,1.38-6.13,2.57-9.17,3.56-2.03.67-4.06,1.25-6.07,1.74-1.21.29-2.38.54-3.53.78-.22.04-.44.08-.67.13-1.1.21-2.17.39-3.21.54-.19.03-.39.04-.6.07-1.01.14-2.03.25-3,.32-.06,0-.11.01-.17.01-1,.07-1.97.1-2.92.11-.11,0-.22.01-.33.01-.1,0-.18-.01-.28-.01-.81,0-1.58-.03-2.35-.08-.06,0-.11,0-.17-.01-1.75-.13-3.43-.42-5.02-.86-1.08-.31-2.14-.7-3.16-1.14-1.01-.46-1.97-1-2.91-1.6-.47-.31-.93-.63-1.38-.97-1.1-.65-2.1-1.43-3-2.32-.31-.29-.6-.6-.88-.92-.38-.43-.74-.88-1.07-1.35-1.01-1.4-1.79-2.84-2.31-4.3-.18-.49-.32-.97-.44-1.46-.1-.39-.17-.76-.22-1.14-.07-.36-.1-.72-.13-1.06-.11-2.06.47-3.68,1.72-4.88.43-.39.92-.76,1.47-1.13,1.38-.89,3.17-1.64,5.37-2.27.44-.13.89-.25,1.36-.36,1.4-.35,2.89-.74,4.45-1.17,1.56-.43,3.18-.9,4.89-1.43.86-.25,1.74-.53,2.63-.81,2.68-.85,5.55-1.81,8.58-2.85,6.07-2.1,12.11-4.39,18.13-6.87,2-.83,4-1.68,6.01-2.54,1-.43,1.97-.86,2.93-1.29,3.84-1.71,7.33-3.38,10.5-4.99,2.36-1.22,4.55-2.4,6.55-3.57,8.16-3.92,15.75-8.22,22.76-12.9,1.6-1.07,3.14-2.17,4.63-3.29.57-2.86,1.2-5.71,1.88-8.49l.07-.31.08-.29c4.95-16.47,12.07-30.97,21.24-43.31-.28-1.52-.58-3.06-.97-4.64-.38-1.54-.82-3.02-1.31-4.45-.44-1.31-.93-2.56-1.46-3.77-.42-.95-.88-1.88-1.35-2.78-2.21-4.2-5-7.85-8.44-10.94-.01-.01-.04-.04-.06-.07-1.56-1.38-3.18-2.65-4.88-3.82-5.13-3.52-10.97-6.09-17.51-7.7-1.01-.25-2.04-.47-3.07-.7-.33-.07-.67-.13-1-.19-.71-.14-1.43-.26-2.15-.39-.39-.07-.78-.13-1.17-.19-.7-.11-1.38-.21-2.07-.29-.4-.06-.81-.11-1.2-.17-.75-.08-1.49-.17-2.24-.24-.36-.04-.71-.07-1.06-.11-1.1-.1-2.2-.18-3.31-.24h-.03c-1.13-.07-2.25-.11-3.39-.14-.38,0-.74,0-1.11-.01-.71,0-1.43-.01-2.15,0-1.5,0-3.02.03-4.56.08-1.28.06-2.57.13-3.85.22-2.59.17-5.18.42-7.8.74-6.55.78-13.21,2-19.96,3.66-13.69,3.34-26.49,8.1-38.39,14.32-3.38,1.75-6.66,3.66-9.88,5.64-.57.35-1.15.68-1.72,1.04-1.06.67-2.06,1.36-3.09,2.04-1.32.88-2.61,1.77-3.88,2.67-.31.22-.6.44-.9.67-1.78,1.28-3.52,2.6-5.2,3.96-4.31,3.43-8.38,7.05-12.16,10.9-4.45,4.52-8.52,9.31-12.23,14.39-2.46,3.38-4.74,6.87-6.8,10.45-1.03,1.79-2.02,3.61-2.95,5.46-2.61,5.2-4.82,10.59-6.63,16.21-1.4,4.35-2.56,8.83-3.48,13.44-.13.65-.25,1.29-.38,1.95-.82,4.57-1.35,9.23-1.58,13.97-.06,1.17-.1,2.34-.13,3.52-.01.72-.01,1.45-.01,2.17,0,1.95.06,3.92.14,5.91.1,1.79.21,3.6.38,5.42.01.11.03.24.03.35.1,1.03.21,2.06.33,3.1.4,3.46.95,6.96,1.64,10.49.46,2.36.97,4.74,1.56,7.13.88,3.6,1.88,7.05,2.99,10.34,1.11,3.29,2.35,6.44,3.71,9.44.89,2,1.85,3.92,2.86,5.8.5.93,1.01,1.85,1.54,2.74,1.6,2.7,3.31,5.25,5.13,7.66,1.83,2.39,3.78,4.64,5.85,6.74.68.71,1.39,1.39,2.1,2.06,11.44,10.68,25.73,17.28,42.86,19.79h.01c1.26.19,2.54.35,3.82.49.39.06.78.08,1.18.13.93.1,1.88.18,2.82.25.42.04.83.07,1.25.1,1.13.07,2.24.14,3.38.18.21,0,.42.01.63.03,1.33.04,2.68.07,4.05.07h.33c.26,0,.53,0,.78-.01,1.07,0,2.13-.01,3.2-.06.44-.01.88-.01,1.31-.04,1.24-.04,2.49-.11,3.74-.18l.58-.04c1.45-.1,2.91-.22,4.38-.36l1.21-.13c1.13-.13,2.25-.25,3.38-.39.44-.06.89-.11,1.33-.18,1.39-.18,2.79-.38,4.2-.6.13-.03.24-.04.36-.06,1.52-.25,3.06-.53,4.62-.81.43-.08.88-.18,1.32-.26,1.17-.22,2.35-.46,3.53-.71.46-.1.92-.19,1.38-.31,1.58-.35,3.18-.71,4.78-1.1,1.7-.42,3.39-.85,5.06-1.29,1.68-.44,3.35-.92,5.02-1.4,3.32-.96,6.62-2,9.88-3.1,6.52-2.21,12.91-4.71,19.18-7.48,6.27-2.78,12.16-5.74,17.7-8.91,3.31-1.89,6.48-3.86,9.54-5.89-4.87-4.99-8.56-10.9-10.97-17.64-2.57-7.19-3.91-15.14-3.99-23.63ZM2216.4,279.19c-1.07-.43-1.95-1.07-2.63-1.9-.7-.83-1.18-1.86-1.49-3.1-.26-1.11-.46-2.22-.56-3.34-.06-.56-.08-1.11-.1-1.67-.01-1.11.06-2.22.19-3.34.22-1.67.64-3.34,1.24-5.02.72-1.99,1.65-3.95,2.75-5.85,1.38-2.38,3.04-4.68,5.02-6.92,2.18-2.47,4.57-4.73,7.12-6.8,1.61-1.32,3.27-2.57,5.03-3.73,2.82-1.85,5.71-3.36,8.66-4.52,1.77-.7,3.54-1.27,5.37-1.7.99-.25,1.96-.46,2.93-.64.31-.07.6-.11.9-.17.65-.11,1.29-.22,1.93-.31.33-.06.67-.1,1-.14.6-.07,1.18-.13,1.75-.18.32-.03.65-.06.97-.07.6-.04,1.2-.06,1.79-.07.26,0,.54-.01.82-.01.19,0,.39.01.6.01.47.01.95.04,1.42.07.22.01.44.03.67.04.46.04.9.1,1.33.15.19.03.39.04.58.07.63.1,1.22.21,1.82.33,1.29.29,2.47.72,3.53,1.31,1.07.58,2.02,1.32,2.84,2.2,1.24,1.32,2.22,2.96,2.93,4.93.24.67.44,1.36.63,2.1.18.76.33,1.52.44,2.27.21,1.49.28,2.95.18,4.36-.19,2.82-1.01,5.49-2.45,8.01-.36.63-.76,1.24-1.21,1.85-.88,1.21-1.83,2.38-2.88,3.49-2.6,2.78-5.71,5.24-9.33,7.38-.72.43-1.47.85-2.24,1.25-1.53.81-3.06,1.56-4.59,2.25-2.31,1.04-4.6,1.97-6.89,2.78-.76.26-1.53.51-2.29.76-1.54.47-3.07.9-4.6,1.28-4.31,1.04-8.06,1.86-11.27,2.46-.53.1-1.06.18-1.56.28-.5.08-.99.15-1.47.24-.86.13-1.68.21-2.46.26-.25.03-.47.03-.71.04-.35.01-.7.04-1.01.04-.22,0-.43-.01-.65-.03-.13,0-.25,0-.38-.01-.64-.03-1.24-.1-1.79-.21-.11-.01-.21-.04-.31-.06-.57-.13-1.11-.28-1.6-.46Z"/>
    <path class="cls-1" d="M2518.87,194.54c-13.87,11.76-24.9,26.27-32.75,43.13-2.56,5.5-4.7,11.26-6.44,17.24-1.4-.38-2.85-.74-4.35-1.06-2.1-.46-4.3-.88-6.59-1.25-1.28-.21-2.54-.36-3.79-.47-.03,0-.06-.01-.08-.01-1.22-.1-2.42-.15-3.6-.17h-.17c-1.1,0-2.18.06-3.25.14-.31.01-.6.06-.89.08-.79.08-1.58.18-2.35.31-.31.06-.63.1-.93.15-.96.19-1.9.4-2.85.65-.06.03-.11.03-.18.06-.99.28-1.95.61-2.91.97-.28.1-.54.21-.82.33-.71.28-1.4.6-2.09.93-.28.14-.54.26-.82.4-.9.47-1.81.97-2.68,1.54-.33.21-.65.43-.97.65-1.58,1.1-3.09,2.34-4.48,3.73-1.68,1.68-3.23,3.59-4.64,5.7-.35.53-.7,1.07-1.03,1.63-.67,1.13-1.31,2.28-1.9,3.5-1.5,3.06-2.78,6.45-3.86,10.19-.71,2.27-1.35,4.52-1.92,6.77-.57,2.25-1.07,4.5-1.5,6.74-.88,4.49-1.57,8.83-2.13,13.01-.54,4.2-1.07,8.27-1.57,12.19-.25,1.96-.51,3.86-.78,5.71-.26,1.85-.54,3.63-.82,5.35-.14.86-.29,1.7-.44,2.53-.32,1.64-.68,3.21-1.08,4.71-.19.75-.4,1.49-.63,2.2-.49,1.64-1,3.21-1.56,4.73-.56,1.53-1.15,2.99-1.78,4.38-.63,1.4-1.29,2.74-1.99,4.02-.47.88-.97,1.71-1.49,2.53-.97,1.57-2.02,3.06-3.11,4.42-.42.51-.85,1.03-1.28,1.52-1.31,1.46-2.7,2.79-4.16,4-.49.39-.99.78-1.49,1.15-.5.36-1.01.72-1.54,1.06-.67.43-1.35.83-2.04,1.22-.19.1-.39.19-.58.31-.58.31-1.18.6-1.81.88-.13.06-.25.13-.39.18-.72.32-1.47.61-2.24.89-.19.07-.39.13-.57.19-.63.21-1.27.4-1.9.58-.21.06-.4.11-.6.17-.81.21-1.63.4-2.46.56-.14.03-.29.06-.44.08-.71.13-1.43.25-2.17.35-.24.03-.47.06-.72.08-.88.1-1.77.19-2.67.24,0,0-.01,0-.01.01-.92.04-1.85.07-2.79.07h-.9c-.49,0-.99-.01-1.49-.03l-1-.04c-.51-.03-1.04-.07-1.57-.11-.32-.01-.64-.04-.97-.07-.58-.06-1.17-.13-1.75-.18-.29-.04-.57-.07-.85-.1-.88-.11-1.75-.24-2.64-.39h-.03c-.86-.14-1.7-.31-2.52-.47-.44-.1-.88-.19-1.31-.29-2.79-.64-5.38-1.46-7.74-2.47-1.9-.81-3.66-1.75-5.27-2.79-1.18-.76-2.29-1.57-3.31-2.45-.4-.35-.78-.72-1.17-1.07-.79-.75-1.57-1.52-2.29-2.32-1.07-1.2-2.04-2.46-2.95-3.77-.44-.67-.88-1.33-1.28-2.03-1.22-2.07-2.25-4.3-3.1-6.64-.35-1-.67-2.03-.97-3.07-.4-1.39-.76-2.81-1.07-4.27-.88-4.24-1.31-8.74-1.29-13.5-.76-4.48-1.26-9.31-1.52-14.53-.15-3.39-.17-6.85-.08-10.34.06-1.88.13-3.75.25-5.64,0-.07,0-.14.01-.21.13-1.96.29-3.92.49-5.87.35-3.42.78-6.84,1.33-10.24.22-1.35.49-2.65.72-3.99.56-3.07,1.18-6.12,1.86-9.13.21-.96.4-1.93.63-2.88.82-2.72,1.7-5.38,2.64-7.98.31-.83.61-1.65.93-2.47.67-1.74,1.35-3.45,2.06-5.13,1.45-3.35,3-6.57,4.66-9.7,2.11-3.95,4.39-7.71,6.85-11.29,1.31-1.92,2.67-3.78,4.09-5.57.35-.43.7-.85,1.04-1.28,2.79-3.45,5.75-6.69,8.94-9.73.89-.86,1.78-1.7,2.7-2.52,1.82-1.64,3.7-3.21,5.6-4.73,4.77-3.77,9.8-7.13,15.1-10.09,8.47-4.71,17.6-8.38,27.41-11.01,1.33-.36,2.68-.68,4.03-1,.44-.1.88-.19,1.32-.29.92-.21,1.85-.4,2.78-.58.51-.11,1.04-.21,1.56-.31.88-.15,1.74-.32,2.61-.46.54-.1,1.08-.18,1.63-.26.88-.14,1.75-.26,2.64-.38.53-.07,1.06-.15,1.6-.21.95-.13,1.9-.22,2.86-.32.46-.06.93-.1,1.39-.14,1.36-.13,2.74-.24,4.11-.32.06-.01.11-.01.18-.01,1.43-.1,2.89-.17,4.34-.21.46-.01.92-.01,1.38-.03,1.01-.03,2.02-.04,3.03-.04.42-.01.83,0,1.25,0,2.02.01,4.04.04,6.1.13.01.01.04.01.06.01,2.06.08,4.14.22,6.24.39.38.03.76.06,1.15.1,2.03.17,4.06.39,6.12.64.39.04.78.1,1.17.14,2.14.28,4.28.58,6.45.93,4.82.78,9.52,1.74,14.14,2.84,5.53,1.29,10.94,2.81,16.18,4.55,1.2.4,2.38.82,3.54,1.24,2.34.85,4.59,1.75,6.77,2.7.07.03.14.07.22.1Z"/>
    <path class="cls-1" d="M2704.75,235.27c-5.5-3.27-9.7-7.63-12.47-12.94-2.86-5.48-3.89-11.63-3.09-18.28.67-5.39,2.53-10.26,5.52-14.44-3.32-2.99-7.12-5.62-11.38-7.84-7.98-4.16-17.01-7.24-27.08-9.26-10.06-2.02-20.67-3.02-31.8-3.02-9.4,0-18.56.71-27.48,2.14-8.92,1.42-17.61,3.56-26.06,6.41-11.4,3.85-21.84,8.87-31.36,15.03-1.71,1.1-3.38,2.24-5.02,3.41-1.63,1.17-3.24,2.36-4.81,3.6-1.14.9-2.29,1.79-3.41,2.74-12.82,10.8-22.85,23.99-30.1,39.56-2.4,5.14-4.39,10.51-5.99,16.11-.22.75-.43,1.52-.64,2.28-.28,1.04-.54,2.1-.79,3.16-.43,1.83-.81,3.68-1.15,5.56-1.53,8.17-2.31,16.79-2.31,25.84,0,12.33,1.68,23.35,5.03,33.1,2.02,5.84,4.64,11.22,7.85,16.12,2.68,4.09,5.73,7.85,9.15,11.3,7.51,7.58,16.78,13.61,27.8,18.08,16.04,6.51,35,9.77,56.87,9.77,13.96,0,27.69-1.21,41.17-3.63,2.54-.46,5.05-.95,7.49-1.49,3.68-.81,7.27-1.7,10.75-2.67,2.32-.65,4.6-1.35,6.83-2.07,1.13-.36,2.22-.74,3.32-1.13-4.2-3.36-7.65-7.16-10.3-11.34-5.53-8.73-7.55-19.52-6.02-32.08.79-6.46,3.09-13.14,6.81-19.82.1-.18.21-.36.31-.53-.72.18-1.45.36-2.17.57-9.4,2.61-18.65,5.23-27.79,7.85-4.56,1.31-9.02,2.28-13.39,2.95-4.35.64-8.62.97-12.77.97-6.71,0-12.39-.74-17.01-2.21-4.63-1.49-8.35-3.96-11.18-7.45-1.61-1.61-2.85-3.49-3.73-5.64-.88-2.14-1.31-4.23-1.31-6.24,0-3.21,1-5.39,3.02-6.53s4.96-1.72,8.85-1.72c5.77,0,12.91-.4,21.45-1.2,8.52-.81,17.07-1.95,25.66-3.43,8.59-1.47,15.85-3.09,21.74-4.82,8.87-1.88,17.25-4.27,25.17-7.14,7.91-2.89,14.93-6.55,21.03-10.98,6.1-4.42,10.87-9.97,14.3-16.61,1.58-3.1,2.79-6.55,3.66-10.34-1.1-.51-2.17-1.07-3.18-1.68ZM2632.3,246.79c-4.56,3.89-10.2,6.69-16.92,8.35-6.7,1.68-13.22,2.52-19.52,2.52-5.91,0-10.77-.17-14.6-.5-3.84-.33-6.69-1.17-8.56-2.52-1.88-1.33-2.82-3.28-2.82-5.84,0-4.56,1.31-8.83,3.93-12.79,2.61-3.95,6.13-7.48,10.56-10.56,4.43-3.09,9.19-5.53,14.29-7.35,5.1-1.81,10.13-2.71,15.1-2.71,3.68,0,7.05.29,10.09.89,3.04.58,5.74,1.46,8.13,2.63,1.5.74,2.75,1.65,3.77,2.74,2.25,2.42,3.38,5.7,3.38,9.86,0,6.31-2.28,11.4-6.84,15.29Z"/>
    <path class="cls-1" d="M2907.14,225.04c-1.18,9.73-5.41,18.54-12.66,26.44-.9.99-1.86,1.96-2.86,2.91-2,1.89-4.18,3.71-6.56,5.46-1.65,1.21-3.42,2.36-5.24,3.5-4.77,2.95-10.09,5.66-16.07,8.09-2.91,1.35-5.89,2.7-8.91,4.06-5.2,2.34-10.54,4.68-16.08,7.09-4.39,1.89-8.76,3.74-13.08,5.55s-8.62,3.56-12.89,5.27c-2.14.86-4.23,1.7-6.28,2.52-3.52,1.4-6.89,2.74-10.19,4.03-2.46.97-4.87,1.92-7.19,2.84-1.82.7-3.54,1.38-5.18,2.02-2.46.96-4.74,1.85-6.81,2.66-2.09.81-3.98,1.53-5.69,2.18-1.6.53-3.04,1.06-4.38,1.57-.89.35-1.74.7-2.5,1.04-.96.42-1.82.83-2.59,1.25s-1.43.82-2,1.22c-1.43,1.01-2.47,2.1-3.1,3.25-.13.24-.24.46-.33.71-.19.47-.32.96-.38,1.46-.03.19-.03.38-.03.57,0,.25.01.51.06.75.12.64.4,1.21.82,1.74.43.53,1.02,1,1.75,1.42.74.42,1.65.82,2.78,1.2.74.25,1.57.5,2.49.74.92.24,1.93.47,3.02.68.54.11,1.11.22,1.7.33.68.11,1.4.24,2.17.38,2.47.4,5.32.83,8.56,1.28,1.7.24,3.49.47,5.38.71.95.13,1.92.25,2.92.36,1.24.15,2.46.28,3.68.42,6.12.71,12.18,1.28,18.13,1.68,2.38.17,4.74.31,7.09.43,2.35.11,4.74.26,7.14.43,6.03.42,12.29,1.01,18.71,1.75,1.28.14,2.54.28,3.85.43,4.8.58,8.9,1.58,12.33,2.99.86.35,1.67.72,2.45,1.13,1.54.79,2.92,1.7,4.11,2.71.6.5,1.15,1.03,1.68,1.58.71.76,1.33,1.58,1.89,2.43,1.88,2.81,2.96,6.01,3.18,9.63.03.5.04,1.01.04,1.53,0,1.1-.07,2.25-.21,3.43-.5,4.06-1.68,7.69-3.56,10.9-.95,1.6-2.06,3.09-3.34,4.48-1.29,1.38-2.75,2.65-4.38,3.82-.82.58-1.65,1.15-2.53,1.7-4.35,2.71-9.41,4.88-15.17,6.52-2.31.67-4.73,1.24-7.26,1.72-1.22.24-2.47.44-3.74.65-.42.07-.86.13-1.29.19-.85.13-1.7.26-2.56.38-.51.07-1.04.13-1.57.19-.79.1-1.58.19-2.39.28-.57.07-1.15.13-1.72.18-.78.07-1.56.15-2.34.21-.61.06-1.22.1-1.85.14-.76.06-1.54.11-2.34.17-.64.03-1.28.07-1.92.1-.79.04-1.57.07-2.36.1-.67.03-1.33.04-2,.07-.79.01-1.6.04-2.4.06-.68,0-1.36.01-2.04.01-.44,0-.89.01-1.33.01-.71,0-1.42,0-2.14-.01-6.27-.06-12.64-.31-19.07-.74-6.44-.43-12.96-1.04-19.54-1.85-3.25-.4-6.48-.83-9.7-1.28-11.62-1.6-23.16-3.48-34.58-5.67-4.11-.78-8.05-1.65-11.84-2.63-1.26-.32-2.5-.65-3.74-1-3.27-.92-6.42-1.9-9.44-2.96-2.59-.89-5.05-1.86-7.44-2.86-.42-.17-.85-.33-1.26-.51-1.39-.6-2.75-1.22-4.07-1.85-.33-.15-.65-.32-.99-.47-1.96-.9-3.82-1.83-5.55-2.85-.18-.1-.33-.22-.51-.32-.82-.5-1.63-.99-2.39-1.5-2.31-1.57-4.36-3.25-6.17-5.06-1.81-1.81-3.35-3.73-4.64-5.77-1.56-2.45-2.72-5.13-3.53-8.06-1.32-4.89-1.61-10.47-.85-16.71.08-.64.18-1.27.29-1.9.7-3.84,2.07-7.77,4.11-11.83.33-.67.7-1.35,1.07-2.03.61-1.08,1.31-2.15,2.03-3.24,1.29-1.86,2.77-3.73,4.43-5.56.99-1.08,2.02-2.15,3.13-3.22.99-.92,2.03-1.85,3.1-2.77.44-.39.88-.76,1.33-1.14,1.57-1.29,3.28-2.56,5.12-3.78.31-.21.64-.4.95-.61,5.31-3.45,11.62-6.64,18.97-9.58,1.25-.53,2.52-1.06,3.81-1.6,1.29-.54,2.6-1.1,3.93-1.65,2.68-1.13,5.44-2.29,8.3-3.5,1.31-.56,2.63-1.13,3.95-1.68,3.56-1.52,7.14-3.04,10.76-4.6.88-.38,1.74-.75,2.63-1.13,1.46-.64,2.92-1.25,4.38-1.86,2.93-1.24,5.85-2.46,8.77-3.64,1.45-.6,2.92-1.21,4.36-1.79,1.46-.57,2.91-1.14,4.34-1.7,1.42-.56,2.84-1.11,4.24-1.64,2.79-1.06,5.55-2.06,8.23-3.02,2.68-.96,5.24-1.85,7.67-2.67,2.43-.81,4.74-1.56,6.92-2.24,3.1-.95,5.82-1.83,8.15-2.7,3.1-1.13,5.5-2.2,7.23-3.18.43-.24.81-.49,1.15-.72,2.72-1.89,4.21-3.77,4.43-5.64.24-1.86-.96-3.16-3.57-3.88-.65-.18-1.36-.36-2.11-.53-2.24-.5-4.91-.95-8.01-1.32-2.67-.33-5.41-.63-8.22-.88-2.81-.26-5.69-.49-8.63-.68-5.91-.39-11.82-.67-17.74-.85-1.54-.06-3.06-.1-4.56-.15-4.24-.15-8.34-.32-12.32-.51h-.19c-.33-.03-.67-.04-1-.06-.33-.03-.67-.04-1-.06-2-.13-3.98-.25-5.87-.4-1.27-.1-2.5-.22-3.71-.33-1.22-.13-2.41-.26-3.57-.4-.64-.08-1.22-.21-1.83-.31-.51-.08-1.03-.15-1.52-.25-.43-.1-.82-.21-1.24-.31-1.47-.36-2.88-.81-4.23-1.32-1.53-.6-3-1.27-4.36-2.07-.36-.22-.72-.44-1.07-.68-.53-.35-1.04-.71-1.53-1.08-.82-.64-1.57-1.31-2.25-2.02-1.39-1.42-2.53-3-3.43-4.74-1.13-2.15-1.79-4.5-2.02-7.03-.04-.58-.07-1.17-.07-1.77,0-.97.06-1.96.18-2.99.19-1.6.54-3.11,1.04-4.53.31-.88.7-1.71,1.13-2.53.26-.5.53-1.01.83-1.49.74-1.15,1.61-2.22,2.6-3.22,1.18-1.18,2.52-2.28,4.04-3.27.11-.07.21-.13.32-.18.61-.39,1.24-.78,1.88-1.14,3.79-2.1,8.23-3.78,13.32-5.03,2.04-.51,4.18-.95,6.42-1.31,6.73-1.11,13.84-1.86,21.37-2.25,2.5-.14,5.05-.24,7.65-.29,2.77-.06,5.52-.08,8.26-.08h.44c.4,0,.79.01,1.2.01,2.82,0,5.62.04,8.41.11.88.03,1.75.04,2.63.07,3.25.1,6.51.22,9.73.4,1.21.04,2.46.1,3.74.15,2.49.13,5.12.26,7.87.43.17,0,.33.01.5.03,1.35.08,2.71.17,4.11.25,2.99.21,6,.4,9.05.61,3.06.19,6.14.4,9.26.63,3.11.21,6.19.44,9.19.7,3.02.25,5.98.51,8.88.81,4.35.43,8.4.86,12.11,1.28,1.24.15,2.43.29,3.6.43,2.53.32,4.95.67,7.27,1.04,1.95.33,3.84.67,5.64,1.04,2.68.57,5.18,1.18,7.53,1.86.44.13.89.25,1.32.39,4,1.21,7.51,2.6,10.48,4.17,1.88,1,3.56,2.06,5.03,3.18.49.38.96.76,1.4,1.15,2.68,2.36,4.77,5.06,6.24,8.1,2.47,5.09,3.28,11.12,2.42,18.11Z"/>
  </g>
</svg>