<?xml version="1.0" encoding="UTF-8"?>
<svg id="Layer_1" data-name="Layer 1" xmlns="http://www.w3.org/2000/svg" version="1.1" viewBox="0 0 3000 3000">
  <defs>
    <style>
      .cls-1 {
        fill: #e9f4fd;
      }

      .cls-1, .cls-2, .cls-3 {
        stroke-width: 0px;
      }

      .cls-2 {
        fill: #000;
      }

      .cls-3 {
        fill: #030303;
      }
    </style>
  </defs>
  <path class="cls-2" d="M2119.96,598.31c-70.27-78.51-200.73-88.99-286.39-27.59-49.86,35.73-80.65,83.45-94.41,146.82-66.83-83.58-149.48-120.1-250.63-91.36-102.11,29-153.78,103.55-165.05,208.78-68.45-29.67-135.26-30.72-201.2,2.79-65.41,33.24-102.59,88.58-120.24,161.4l-19.34-24.44c-94.83-119.82-189.19-240.03-284.65-359.36-60.06-75.09-138.25-104.64-233.01-84.93-21.19,4.41-41.27,14.24-61.86,21.58l-56.77,44.92c1.92,9.66-7.08,13.51-11.21,19.55-52.89,77.46-59.14,159.03-14.53,240.63,11.64,21.27,25.6,41.06,40.62,60.16,2.69,4.12,6.14,8.72,10.39,14.09,100.78,127.43,355.3,444.8,455.97,572.33,4.84,6.13,12.47,11.38,12.23,22.29-11.63-4.18-21.27-7.82-31.02-11.11-114.57-38.81-241.3,10.73-299.61,117.09-58.38,106.46-31.86,239.69,61.43,316.12,31.57,25.88,71.01,37.1,103.65,60.42,56.55,40.43,106.52,88.28,150.46,141.78,84.7,103.08,178.89,195.41,292.01,267.15,153.82,97.54,319.78,152.45,504.07,139.99,176.73-11.95,330.05-83.6,468.63-189.39,101-77.1,199.84-157.02,299.26-236.18,47.41-37.76,88.09-82.07,122.66-131.87,89.69-129.23,98.74-387.07,87.9-575.89.92-25.01-2.82-62.51-5.65-85.48,1.6-7.35.97-15.71-2.01-25.23-36.57-116.57-87.41-226.19-161.28-323.91-58.67-77.61-119.47-153.64-179.84-229.96-42.89-54.23-84.5-109.71-130.55-161.18ZM2353.02,1008.25c75.08,95.24,128.71,201.72,164.9,316.98.1,3.04.33,6.32.68,9.84,5.21,51.32,19.99,266.75,15.19,318.1-14.18,151.52-47.04,286.85-158.79,391.82-.91.87-1.83,1.73-2.76,2.58-80.4,74.32-170.17,137.31-255.07,206.19-59.97,48.66-121.51,94.97-189.55,132.34-116.82,64.16-240.19,102.22-374.58,98.42-161.31-4.56-302.35-65.23-433.16-155.57-100.27-69.26-179.59-159.46-259.24-250.02-60.6-68.88-128.12-129.47-212.8-169.91-84.67-40.44-117.97-142.63-79.5-228.43,38.63-86.14,135.26-127.45,223.46-93.63,81.38,31.19,152,79.45,211.22,143.41,61.27,66.18,113.2,140.07,170.3,209.7,16.36,19.94,35.37,23.72,52.53,11.72,18.32-12.81,20.92-33.15,6.87-55.19-3.02-4.73-6.44-9.23-9.93-13.64l-3.22-4.07c-172.77-218.34-443.67-558.03-653.51-822.13-26.95-33.92-52.89-66.59-77.49-97.59-2.07-5.26-5.47-10.79-10.23-16.9-26.19-33.62-53.09-66.7-79.19-100.38-51.03-65.89-41.54-154.94,22.01-209.65,59.56-51.3,150.7-44.98,206.46,14.53,7.69,8.19,14.75,17.01,21.73,25.83,193.16,244.03,386.27,488.1,579.39,732.16,3.99,5.04,7.84,10.2,12.01,15.09,17.67,20.81,39.89,24.98,56.6,10.75,16.49-14.02,17.33-37.6.98-58.36-64.16-81.53-129.13-162.42-192.77-244.34-35.53-45.74-41.2-97.24-18.35-149.94,23.16-53.4,64.8-85.6,123.47-90.87,56.23-5.04,101.6,16.97,136.48,61.5,47.61,60.78,95.72,121.16,143.71,181.64,4.98,6.27,10.04,12.66,16.03,17.9,13.79,12.07,29.52,13.1,44.3,2.86,15.71-10.9,20.37-26.75,12.28-44.48-4.26-9.37-10.24-18.19-16.61-26.34-38.67-49.39-78.26-98.07-116.41-147.85-47.71-62.25-40.35-146.23,16.44-201.11,53.43-51.63,138.94-54.8,198.13-6.45,11.67,9.54,21.35,21.8,30.83,33.7,53.63,67.29,106.94,134.84,160.26,202.37,6.52,8.26,12.77,17.01,22.5,21.41,16.62,7.48,31.86,4.05,43.53-9.78,14.22-16.87,10.76-34.76-1.24-50.82-19.73-26.41-41.21-51.5-60.82-77.99-44.11-59.59-38.15-138,13.98-194,46.56-50.03,125.11-59.46,185.76-22.72,16.09,9.75,29.32,22.25,40.87,36.85,90.76,114.83,181.66,229.54,272.29,344.47Z"/>
  <path class="cls-1" d="M1789.87,2014.6c18.65,23.67,19.14,45,1.92,59.49-17.91,15.06-40.52,9.79-59.66-14.35-78.27-98.79-156.44-197.66-234.65-296.5-1.99-2.51-4.09-4.96-5.93-7.59-13.43-19.29-11.51-41.26,4.65-53.88,16.33-12.78,37.84-9.88,52.92,8.87,41.23,51.32,81.83,103.14,122.68,154.76,39.41,49.7,78.84,99.37,118.07,149.19ZM1975.24,1870.26c17.84,22.68,17.23,45.78-.96,59.45-17.55,13.18-38.52,8.45-55.92-13.48-79.83-100.65-159.54-201.38-239.12-302.22-17.36-22-16.87-43.41.38-57.37,17.74-14.35,39.88-9.48,58,13.3,39.99,50.26,79.75,100.7,119.6,151.06s78.82,99.4,118.02,149.26ZM2159.33,1725.77c17.11,21.85,16.6,43.85-.23,57.69-17.46,14.35-40.26,9.64-58.17-12.93-79.33-99.99-158.53-200.07-237.59-300.27-17.9-22.68-17.28-45.77.74-59.54,17.51-13.38,38.68-8.98,56.17,12.89,40.11,50.15,79.77,100.65,119.62,151.01,39.85,50.36,79.88,100.58,119.46,151.14Z"/>
  <path class="cls-1" d="M2080.73,663.78c90.76,114.83,181.66,229.54,272.29,344.47,75.08,95.24,128.71,201.72,164.9,316.98.1,3.04.33,6.32.68,9.84,5.21,51.32,19.99,266.75,15.19,318.1-14.18,151.52-47.04,286.85-158.79,391.82-.91.87-1.83,1.73-2.76,2.58-80.4,74.32-170.17,137.31-255.07,206.19-59.97,48.66-121.51,94.97-189.55,132.34-116.82,64.16-240.19,102.22-374.58,98.42-161.31-4.56-302.35-65.23-433.16-155.57-100.27-69.26-179.59-159.46-259.24-250.02-60.6-68.88-128.12-129.47-212.8-169.91-84.67-40.44-117.97-142.63-79.5-228.43,38.63-86.14,135.26-127.45,223.46-93.63,81.38,31.19,152,79.45,211.22,143.41,61.27,66.18,113.2,140.07,170.3,209.7,16.36,19.94,35.37,23.72,52.53,11.72,18.32-12.81,20.92-33.15,6.87-55.19-3.02-4.73-6.44-9.23-9.93-13.64l-3.22-4.07c-212.5-268.59-425.01-537.17-637.56-805.72-5.73-7.24-10.86-12.66-15.94-16.42-26.95-33.92-52.89-66.59-77.49-97.59-2.07-5.26-5.47-10.79-10.23-16.9-26.19-33.62-53.09-66.7-79.19-100.38-51.03-65.89-41.54-154.94,22.01-209.65,59.56-51.3,150.7-44.98,206.46,14.53,7.69,8.19,14.75,17.01,21.73,25.83,193.16,244.03,386.27,488.1,579.39,732.16,3.99,5.04,7.84,10.2,12.01,15.09,17.67,20.81,39.89,24.98,56.6,10.75,16.49-14.02,17.33-37.6.98-58.36-64.16-81.53-129.13-162.42-192.77-244.34-35.53-45.74-41.2-97.24-18.35-149.94,23.16-53.4,64.8-85.6,123.47-90.87,56.23-5.04,101.6,16.97,136.48,61.5,47.61,60.78,95.72,121.16,143.71,181.64,4.98,6.27,10.04,12.66,16.03,17.9,13.79,12.07,29.52,13.1,44.3,2.86,15.71-10.9,20.37-26.75,12.28-44.48-4.26-9.37-10.24-18.19-16.61-26.34-38.67-49.39-78.26-98.07-116.41-147.85-47.71-62.25-40.35-146.23,16.44-201.11,53.43-51.63,138.94-54.8,198.13-6.45,11.67,9.54,21.35,21.8,30.83,33.7,53.63,67.29,106.94,134.84,160.26,202.37,6.52,8.26,12.77,17.01,22.5,21.41,16.62,7.48,31.86,4.05,43.53-9.78,14.22-16.87,10.76-34.76-1.24-50.82-19.73-26.41-41.21-51.5-60.82-77.99-44.11-59.59-38.15-138,13.98-194,46.56-50.03,125.11-59.46,185.76-22.72,16.09,9.75,29.32,22.25,40.87,36.85Z"/>
  <path class="cls-3" d="M2039.87,1574.62c39.85,50.36,79.87,100.58,119.46,151.14,17.12,21.86,16.59,43.86-.24,57.69-17.46,14.35-40.27,9.64-58.17-12.92-79.33-99.98-158.53-200.07-237.59-300.26-17.9-22.68-17.27-45.78.75-59.55,17.5-13.38,38.67-8.97,56.16,12.9,40.11,50.15,79.78,100.65,119.63,151.01Z"/>
  <path class="cls-3" d="M1671.83,1865.39c39.38,49.71,78.81,99.38,118.05,149.21,18.64,23.67,19.13,45,1.91,59.49-17.89,15.06-40.52,9.79-59.65-14.35-78.28-98.79-156.45-197.65-234.65-296.49-1.99-2.52-4.09-4.96-5.92-7.59-13.43-19.29-11.51-41.25,4.65-53.88,16.34-12.77,37.84-9.88,52.92,8.88,41.23,51.31,81.83,103.14,122.7,154.74Z"/>
  <path class="cls-3" d="M1857.22,1721.01c39.36,49.74,78.81,99.4,118.02,149.25,17.84,22.69,17.23,45.78-.97,59.45-17.55,13.19-38.52,8.45-55.92-13.48-79.82-100.64-159.54-201.37-239.12-302.21-17.36-22-16.88-43.42.39-57.38,17.73-14.35,39.87-9.49,58,13.3,39.98,50.26,79.75,100.7,119.6,151.07Z"/>
</svg>